<svg width="18" height="10" viewBox="0 0 18 10" fill="none" xmlns="http://www.w3.org/2000/svg">
<path d="M17.5842 9.61815C17.3309 9.86251 16.9875 9.99979 16.6294 9.99979C16.2713 9.99979 15.9278 9.86251 15.6746 9.61815L8.98944 3.16601L2.30433 9.61815C2.04962 9.85559 1.70847 9.98697 1.35436 9.984C1.00026 9.98103 0.661531 9.84394 0.411133 9.60227C0.160734 9.3606 0.0187016 9.03368 0.015625 8.69191C0.0125465 8.35015 0.148672 8.02089 0.394682 7.77505L8.03462 0.401367C8.28788 0.157006 8.63133 0.0197315 8.98944 0.0197315C9.34755 0.0197315 9.691 0.157006 9.94426 0.401367L17.5842 7.77505C17.8374 8.01949 17.9796 8.35097 17.9796 8.6966C17.9796 9.04223 17.8374 9.37371 17.5842 9.61815Z" fill="white"/>
</svg>
